<?xml version="1.0" encoding="UTF-8" standalone="no"?>
<!-- Created with Inkscape (http://www.inkscape.org/) -->

<svg
   xmlns:dc="http://purl.org/dc/elements/1.1/"
   xmlns:cc="http://creativecommons.org/ns#"
   xmlns:rdf="http://www.w3.org/1999/02/22-rdf-syntax-ns#"
   xmlns:svg="http://www.w3.org/2000/svg"
   xmlns="http://www.w3.org/2000/svg"
   xmlns:xlink="http://www.w3.org/1999/xlink"
   xmlns:sodipodi="http://sodipodi.sourceforge.net/DTD/sodipodi-0.dtd"
   xmlns:inkscape="http://www.inkscape.org/namespaces/inkscape"
   width="168.43636mm"
   height="17.275524mm"
   viewBox="0 0 168.43636 17.275524"
   version="1.1"
   id="svg10199"
   inkscape:version="0.92.4 (5da689c313, 2019-01-14)"
   sodipodi:docname="1xengineer-rainboow.svg"
   inkscape:export-filename="/home/kathyreid/Dropbox/1x-engineer/1xengineer-bluegold.png"
   inkscape:export-xdpi="96"
   inkscape:export-ydpi="96">
  <defs
     id="defs10193">
    <linearGradient
       inkscape:collect="always"
       xlink:href="#linearGradient10040"
       id="linearGradient10042"
       x1="37.864162"
       y1="81.071609"
       x2="52.980244"
       y2="81.071609"
       gradientUnits="userSpaceOnUse"
       gradientTransform="translate(-10.280557,31.093528)" />
    <linearGradient
       inkscape:collect="always"
       id="linearGradient10040">
      <stop
         style="stop-color:#989454;stop-opacity:1;"
         offset="0"
         id="stop10036" />
      <stop
         id="stop10044"
         offset="0.21235655"
         style="stop-color:#c0b06c;stop-opacity:1" />
      <stop
         style="stop-color:#c4c4a0;stop-opacity:1"
         offset="0.42732301"
         id="stop10046" />
      <stop
         id="stop10048"
         offset="0.58182496"
         style="stop-color:#90b4bc;stop-opacity:1" />
      <stop
         style="stop-color:#90948c;stop-opacity:1"
         offset="0.7863028"
         id="stop10050" />
      <stop
         style="stop-color:#90846c;stop-opacity:1"
         offset="1"
         id="stop10038" />
    </linearGradient>
    <linearGradient
       inkscape:collect="always"
       xlink:href="#linearGradient9878"
       id="linearGradient9884"
       x1="40.335556"
       y1="87.209518"
       x2="55.399445"
       y2="87.137276"
       gradientUnits="userSpaceOnUse"
       spreadMethod="pad"
       gradientTransform="translate(-12.699759,25.027858)" />
    <linearGradient
       id="linearGradient9878"
       inkscape:collect="always">
      <stop
         style="stop-color:#5c3566;stop-opacity:1"
         offset="0"
         id="stop9902" />
      <stop
         style="stop-color:#ad7fa8;stop-opacity:1"
         offset="0.14374229"
         id="stop9891" />
      <stop
         id="stop9908"
         offset="0.33118781"
         style="stop-color:#204a87;stop-opacity:1" />
      <stop
         style="stop-color:#729fcf;stop-opacity:1"
         offset="0.49488398"
         id="stop9910" />
      <stop
         style="stop-color:#4e9a06;stop-opacity:1"
         offset="0.67663413"
         id="stop9906" />
      <stop
         id="stop9900"
         offset="0.85877419"
         style="stop-color:#edd400;stop-opacity:1" />
      <stop
         id="stop9888"
         offset="1"
         style="stop-color:#fce94f;stop-opacity:1" />
    </linearGradient>
  </defs>
  <sodipodi:namedview
     id="base"
     pagecolor="#ffffff"
     bordercolor="#666666"
     borderopacity="1.0"
     inkscape:pageopacity="0.0"
     inkscape:pageshadow="2"
     inkscape:zoom="5.5622315"
     inkscape:cx="96.96035"
     inkscape:cy="10.592307"
     inkscape:document-units="mm"
     inkscape:current-layer="layer1"
     showgrid="false"
     inkscape:window-width="1864"
     inkscape:window-height="1017"
     inkscape:window-x="56"
     inkscape:window-y="27"
     inkscape:window-maximized="1" />
  <metadata
     id="metadata10196">
    <rdf:RDF>
      <cc:Work
         rdf:about="">
        <dc:format>image/svg+xml</dc:format>
        <dc:type
           rdf:resource="http://purl.org/dc/dcmitype/StillImage" />
        <dc:title></dc:title>
      </cc:Work>
    </rdf:RDF>
  </metadata>
  <g
     inkscape:label="Layer 1"
     inkscape:groupmode="layer"
     id="layer1"
     transform="translate(-12.543724,-102.39795)">
    <g
       aria-label="1xengineer"
       transform="matrix(0.43188809,0,0,0.43188809,-15.529001,19.559792)"
       style="font-style:normal;font-variant:normal;font-weight:normal;font-stretch:normal;font-size:40px;line-height:1.25;font-family:'Font Awesome 5 Brands';-inkscape-font-specification:'Font Awesome 5 Brands';letter-spacing:0px;word-spacing:0px;fill:#000000;fill-opacity:1;stroke:none"
       id="flowRoot10">
      <path
         d="m 65,226.80469 v -5 h 10 v -20 h -5 v -5 h 5 v -5 h 10 v 30 h 10 v 5 z"
         style="font-style:normal;font-variant:normal;font-weight:normal;font-stretch:normal;font-family:'Press Start 2P';-inkscape-font-specification:'Press Start 2P'"
         id="path7542"
         inkscape:connector-curvature="0" />
      <path
         d="m 145,226.80469 v -5 h -5 v -15 h 5 v -5 h 25 v 5 h 5 v 10 h -25 v 5 h 20 v 5 z m 5,-15 h 15 v -5 h -15 z"
         style="font-style:normal;font-variant:normal;font-weight:normal;font-stretch:normal;font-family:'Press Start 2P';-inkscape-font-specification:'Press Start 2P'"
         id="path7546"
         inkscape:connector-curvature="0" />
      <path
         d="m 180,226.80469 v -25 h 30 v 5 h 5 v 20 h -10 v -20 h -15 v 20 z"
         style="font-style:normal;font-variant:normal;font-weight:normal;font-stretch:normal;font-family:'Press Start 2P';-inkscape-font-specification:'Press Start 2P'"
         id="path7548"
         inkscape:connector-curvature="0" />
      <path
         d="m 225,231.80469 v -5 h 20 v -5 h -20 v -5 h -5 v -10 h 5 v -5 h 30 v 25 h -5 v 5 z m 5,-15 h 15 v -10 h -15 z"
         style="font-style:normal;font-variant:normal;font-weight:normal;font-stretch:normal;font-family:'Press Start 2P';-inkscape-font-specification:'Press Start 2P'"
         id="path7550"
         inkscape:connector-curvature="0" />
      <path
         d="m 275,196.80469 v -5 h 10 v 5 z m -10,30 v -5 h 10 v -15 h -5 v -5 h 15 v 20 h 10 v 5 z"
         style="font-style:normal;font-variant:normal;font-weight:normal;font-stretch:normal;font-family:'Press Start 2P';-inkscape-font-specification:'Press Start 2P'"
         id="path7552"
         inkscape:connector-curvature="0" />
      <path
         d="m 300,226.80469 v -25 h 30 v 5 h 5 v 20 h -10 v -20 h -15 v 20 z"
         style="font-style:normal;font-variant:normal;font-weight:normal;font-stretch:normal;font-family:'Press Start 2P';-inkscape-font-specification:'Press Start 2P'"
         id="path7554"
         inkscape:connector-curvature="0" />
      <path
         d="m 345,226.80469 v -5 h -5 v -15 h 5 v -5 h 25 v 5 h 5 v 10 h -25 v 5 h 20 v 5 z m 5,-15 h 15 v -5 h -15 z"
         style="font-style:normal;font-variant:normal;font-weight:normal;font-stretch:normal;font-family:'Press Start 2P';-inkscape-font-specification:'Press Start 2P'"
         id="path7556"
         inkscape:connector-curvature="0" />
      <path
         d="m 385,226.80469 v -5 h -5 v -15 h 5 v -5 h 25 v 5 h 5 v 10 h -25 v 5 h 20 v 5 z m 5,-15 h 15 v -5 h -15 z"
         style="font-style:normal;font-variant:normal;font-weight:normal;font-stretch:normal;font-family:'Press Start 2P';-inkscape-font-specification:'Press Start 2P'"
         id="path7558"
         inkscape:connector-curvature="0" />
      <path
         d="m 435,206.80469 h 5 v 5 h -5 v 15 h -10 v -25 h 10 z m 20,-5 v 5 h -15 v -5 z"
         style="font-style:normal;font-variant:normal;font-weight:normal;font-stretch:normal;font-family:'Press Start 2P';-inkscape-font-specification:'Press Start 2P'"
         id="path7560"
         inkscape:connector-curvature="0" />
    </g>
    <path
       inkscape:connector-curvature="0"
       d="m 27.583606,117.56373 v -2.15944 h 2.15944 v -2.15944 h 2.159441 v -2.15944 h -2.159441 v -2.15944 h -2.15944 v -2.15944 h 4.318881 v 2.15944 h 2.15944 v 2.15944 h 2.159441 v -2.15944 h 2.15944 v -2.15944 h 4.318881 v 2.15944 h -2.159441 v 2.15944 h -2.15944 v 2.15944 h 2.15944 v 2.15944 h 2.159441 v 2.15944 h -4.318881 v -2.15944 h -2.15944 v -2.15944 h -2.159441 v 2.15944 h -2.15944 v 2.15944 z"
       style="font-style:normal;font-variant:normal;font-weight:normal;font-stretch:normal;font-size:40px;line-height:1.25;font-family:'Press Start 2P';-inkscape-font-specification:'Press Start 2P';letter-spacing:0px;word-spacing:0px;fill:#000000;fill-opacity:1;stroke:none;stroke-width:0.43188807"
       id="path7544-2-4" />
    <path
       inkscape:connector-curvature="0"
       d="m 27.583606,117.56373 v -2.15944 h 2.15944 v -2.15944 h 2.159441 v -2.15944 h -2.159441 v -2.15944 h -2.15944 v -2.15944 h 4.318881 v 2.15944 h 2.15944 v 2.15944 h 2.159441 v -2.15944 h 2.15944 v -2.15944 h 4.318881 v 2.15944 h -2.159441 v 2.15944 h -2.15944 v 2.15944 h 2.15944 v 2.15944 h 2.159441 v 2.15944 h -4.318881 v -2.15944 h -2.15944 v -2.15944 h -2.159441 v 2.15944 h -2.15944 v 2.15944 z"
       style="font-style:normal;font-variant:normal;font-weight:normal;font-stretch:normal;font-size:40px;line-height:1.25;font-family:'Press Start 2P';-inkscape-font-specification:'Press Start 2P';letter-spacing:0px;word-spacing:0px;fill:url(#linearGradient10042);fill-opacity:1;stroke:none;stroke-width:0.43188807"
       id="path7544-2-7-5" />
    <path
       inkscape:connector-curvature="0"
       d="m 27.583606,117.56373 v -2.15944 h 2.15944 v -2.15944 h 2.159441 v -2.15944 h -2.159441 v -2.15944 h -2.15944 v -2.15944 h 4.318881 v 2.15944 h 2.15944 v 2.15944 h 2.159441 v -2.15944 h 2.15944 v -2.15944 h 4.318881 v 2.15944 h -2.159441 v 2.15944 h -2.15944 v 2.15944 h 2.15944 v 2.15944 h 2.159441 v 2.15944 h -4.318881 v -2.15944 h -2.15944 v -2.15944 h -2.159441 v 2.15944 h -2.15944 v 2.15944 z"
       style="font-style:normal;font-variant:normal;font-weight:normal;font-stretch:normal;font-size:40px;line-height:1.25;font-family:'Press Start 2P';-inkscape-font-specification:'Press Start 2P';letter-spacing:0px;word-spacing:0px;fill:url(#linearGradient9884);fill-opacity:1;stroke:none;stroke-width:0.43188807"
       id="path7544-2" />
  </g>
</svg>
